<svg version="1.2" xmlns="http://www.w3.org/2000/svg" viewBox="0 0 1523 359" width="1523" height="359">
	<title>KIA_logo3-svg</title>
	<style>
		.s0 { fill: #ffffff } 
	</style>
	<g id="Layer">
		<g id="svg_1">
			<path id="svg_2" class="s0" d="m883 317.3c0 2.9 0.9 4.6 2.6 4.6 1.3-0.2 2.6-0.8 3.6-1.5l474.4-308.2q3-2.1 6.3-3.7 3.2-1.6 6.7-2.6 3.5-1.1 7.1-1.6 3.6-0.4 7.3-0.3h104.2c16 0 26.8 10.6 26.8 26.6v199.3c0 24.1-5.3 38.1-26.6 50.9l-126.5 76.1q-0.5 0.4-1 0.6-0.5 0.3-1 0.5-0.6 0.2-1.1 0.3-0.6 0.1-1.1 0.2c-1.6 0-3.1-1.3-3.1-5.7v-232.4c0-2.8-0.7-4.6-2.6-4.6q-0.5 0-1 0.2-0.4 0.1-0.9 0.3-0.5 0.2-0.9 0.4-0.4 0.3-0.8 0.6l-346.7 225.5c-7.9 5.3-17.2 8.2-26.6 8h-229.8c-16.2 0-26.8-10.6-26.8-26.8v-287.1c0-2.2-0.9-4.1-2.8-4.1q-0.5 0-0.9 0.1-0.5 0.2-1 0.4-0.5 0.2-0.9 0.4-0.4 0.3-0.8 0.6l-228.8 137.4c-2.2 1.5-2.8 2.6-2.8 3.6 0 1 0.4 1.9 1.9 3.6l163.5 163.4c2.1 2.1 3.6 3.8 3.6 5.7 0 1.5-2.4 2.7-5.3 2.7h-147.6c-11.6 0-20.6-1.7-26.8-7.9l-99.1-99.1q-0.3-0.3-0.6-0.6-0.3-0.2-0.7-0.4-0.4-0.2-0.9-0.3-0.4-0.2-0.8-0.2-0.4 0-0.8 0.1-0.4 0.1-0.8 0.2-0.4 0.1-0.7 0.3-0.4 0.1-0.8 0.3l-165.5 99.7c-10.1 6.1-16.9 7.7-26.8 7.7h-152.4c-16.2 0.2-26.9-10.6-26.9-26.6v-195.5c0-24.2 5.3-38.1 26.8-50.9l127.2-76.4q0.4-0.3 0.8-0.5 0.4-0.2 0.8-0.3 0.4-0.1 0.9-0.2 0.4-0.1 0.9-0.1c1.9 0 3 2 3 6.4v261.7c0 2.8 0.6 4 2.6 4 1.4-0.2 2.6-0.8 3.8-1.5l429.8-258.9c8.2-5.6 18.2-8.3 28.3-7.9h231.3c16 0 26.8 10.7 26.8 26.7l-0.2 286.8z"/>
		</g>
	</g>
</svg>